<svg xmlns="http://www.w3.org/2000/svg" viewBox="0 0 326.32 225.8"><defs><style>.cls-1{fill:#9ed601;}</style></defs><g id="Layer_2" data-name="Layer 2"><g id="Layer_2-2" data-name="Layer 2"><path class="cls-1" d="M117.2,205.1a129.1,129.1,0,0,0,82.7,12,125.1,125.1,0,0,0,38.79-14.25,123.5,123.5,0,0,0,31.52-25.69,121.68,121.68,0,0,0,21.12-34A118.68,118.68,0,0,0,296,66.43,115.21,115.21,0,0,0,280,32l18.8,7.2a241.43,241.43,0,0,0-100.3,68.14,22.78,22.78,0,1,1-34.24-30.06c.48-.54,1-1,1.49-1.54l.15-.14a283.6,283.6,0,0,1,57.71-42A278.75,278.75,0,0,1,289.31,7.7l13-3.3,5.8,10.5a145.6,145.6,0,0,1,16.49,92.72A141.8,141.8,0,0,1,309.92,152,140.17,140.17,0,0,1,282,188.62a137.89,137.89,0,0,1-37.73,25.23,135.28,135.28,0,0,1-87.15,8.21A131.77,131.77,0,0,1,117.2,205.1Z"/><path class="cls-1" d="M209.12,20.7a129.1,129.1,0,0,0-82.7-12A124,124,0,0,0,56.11,48.65,121.86,121.86,0,0,0,35,82.6a118.86,118.86,0,0,0-4.68,76.77,115.46,115.46,0,0,0,16,34.43l-18.8-7.2a242.71,242.71,0,0,0,54.82-27.89,241.34,241.34,0,0,0,45.49-40.25A22.78,22.78,0,1,1,162,148.52c-.47.54-1,1-1.48,1.54l-.15.14a283.87,283.87,0,0,1-57.71,42A279.09,279.09,0,0,1,37,218.1l-13,3.3-5.79-10.49A145.48,145.48,0,0,1,1.72,118.18,141.63,141.63,0,0,1,16.4,73.81,140.08,140.08,0,0,1,44.32,37.18,138.42,138.42,0,0,1,82.05,12a135.32,135.32,0,0,1,87.16-8.21A131.88,131.88,0,0,1,209.12,20.7Z"/></g></g></svg>