<svg width="11" height="10" viewBox="0 0 11 10" fill="none" xmlns="http://www.w3.org/2000/svg">
<path d="M5.12414 0C4.45122 0 3.7849 0.13254 3.16321 0.390052C2.54152 0.647563 1.97664 1.025 1.50082 1.50082C0.539863 2.46179 0 3.76513 0 5.12414C0 7.389 1.47063 9.31055 3.50491 9.99206C3.76112 10.0331 3.8431 9.87421 3.8431 9.73586V8.86988C2.42372 9.17733 2.12139 8.18324 2.12139 8.18324C1.88568 7.58884 1.55261 7.43 1.55261 7.43C1.08632 7.1123 1.58848 7.12255 1.58848 7.12255C2.1009 7.15842 2.37247 7.65033 2.37247 7.65033C2.81827 8.4292 3.57152 8.19862 3.8636 8.07564C3.90972 7.74257 4.04294 7.51711 4.18642 7.389C3.04886 7.2609 1.85494 6.82022 1.85494 4.86793C1.85494 4.29915 2.04965 3.8431 2.38272 3.47929C2.33148 3.35118 2.15214 2.81827 2.43396 2.12652C2.43396 2.12652 2.86439 1.98816 3.8431 2.64918C4.24791 2.53645 4.68858 2.48008 5.12414 2.48008C5.55969 2.48008 6.00036 2.53645 6.40517 2.64918C7.38388 1.98816 7.81431 2.12652 7.81431 2.12652C8.09613 2.81827 7.91679 3.35118 7.86555 3.47929C8.19862 3.8431 8.39333 4.29915 8.39333 4.86793C8.39333 6.82535 7.19429 7.25578 6.0516 7.38388C6.23607 7.54273 6.40517 7.8553 6.40517 8.33184V9.73586C6.40517 9.87421 6.48715 10.0382 6.74849 9.99206C8.78277 9.30543 10.2483 7.389 10.2483 5.12414C10.2483 4.45122 10.1157 3.7849 9.85822 3.16321C9.60071 2.54152 9.22327 1.97664 8.74745 1.50082C8.27163 1.025 7.70675 0.647563 7.08506 0.390052C6.46337 0.13254 5.79705 0 5.12414 0Z" fill="#C5FF1E"/>
</svg>
