<svg width="10" height="10" viewBox="0 0 10 10" fill="none" xmlns="http://www.w3.org/2000/svg">
<path d="M0 0.71625C0 0.320625 0.32875 0 0.734375 0H9.26562C9.67125 0 10 0.320625 10 0.71625V9.28375C10 9.67937 9.67125 10 9.26562 10H0.734375C0.32875 10 0 9.67937 0 9.28375V0.71625ZM3.08938 8.37125V3.85563H1.58875V8.37125H3.08938ZM2.33938 3.23875C2.8625 3.23875 3.18812 2.8925 3.18812 2.45875C3.17875 2.01562 2.86313 1.67875 2.34938 1.67875C1.83563 1.67875 1.5 2.01625 1.5 2.45875C1.5 2.8925 1.82562 3.23875 2.32938 3.23875H2.33938ZM5.40688 8.37125V5.84938C5.40688 5.71438 5.41687 5.57937 5.45687 5.48312C5.565 5.21375 5.81188 4.93437 6.22688 4.93437C6.77 4.93437 6.98688 5.34812 6.98688 5.95563V8.37125H8.4875V5.78125C8.4875 4.39375 7.7475 3.74875 6.76 3.74875C5.96375 3.74875 5.60687 4.18625 5.40688 4.49438V4.51H5.39688L5.40688 4.49438V3.85563H3.90687C3.92562 4.27938 3.90687 8.37125 3.90687 8.37125H5.40688Z" fill="#C5FF1E"/>
</svg>
